<svg width="1241" height="945" viewBox="0 0 1241 945" fill="none" xmlns="http://www.w3.org/2000/svg">
<path d="M31.4886 788L2.31818 689.091H32.2614L45.7841 749.943H46.5568L62.5909 689.091H86.1591L102.193 750.136H102.966L116.489 689.091H146.432L117.261 788H91.5682L74.7614 732.75H73.9886L57.1818 788H31.4886ZM182.617 789.352C174.568 789.352 167.678 787.759 161.947 784.571C156.216 781.351 151.821 776.876 148.762 771.145C145.703 765.382 144.174 758.701 144.174 751.102C144.174 743.504 145.703 736.839 148.762 731.108C151.821 725.345 156.216 720.869 161.947 717.682C167.678 714.462 174.568 712.852 182.617 712.852C190.666 712.852 197.557 714.462 203.288 717.682C209.019 720.869 213.414 725.345 216.472 731.108C219.531 736.839 221.06 743.504 221.06 751.102C221.06 758.701 219.531 765.382 216.472 771.145C213.414 776.876 209.019 781.351 203.288 784.571C197.557 787.759 190.666 789.352 182.617 789.352ZM182.81 769.648C185.064 769.648 187.012 768.891 188.654 767.378C190.296 765.865 191.568 763.707 192.469 760.906C193.371 758.105 193.822 754.773 193.822 750.909C193.822 747.013 193.371 743.681 192.469 740.912C191.568 738.111 190.296 735.954 188.654 734.44C187.012 732.927 185.064 732.17 182.81 732.17C180.428 732.17 178.383 732.927 176.677 734.44C174.97 735.954 173.666 738.111 172.765 740.912C171.863 743.681 171.413 747.013 171.413 750.909C171.413 754.773 171.863 758.105 172.765 760.906C173.666 763.707 174.97 765.865 176.677 767.378C178.383 768.891 180.428 769.648 182.81 769.648ZM231.879 788V713.818H257.765V727.92H258.538C259.89 722.705 262.031 718.889 264.961 716.474C267.923 714.06 271.384 712.852 275.344 712.852C276.504 712.852 277.647 712.949 278.773 713.142C279.933 713.303 281.043 713.545 282.106 713.866V736.614C280.786 736.163 279.16 735.825 277.228 735.599C275.296 735.374 273.638 735.261 272.254 735.261C269.646 735.261 267.295 735.857 265.202 737.048C263.142 738.207 261.516 739.849 260.325 741.974C259.133 744.067 258.538 746.53 258.538 749.364V788H231.879ZM314.802 770.42L314.995 738.739H318.472L336.438 713.818H366.381L336.245 752.648H328.711L314.802 770.42ZM290.847 788V689.091H317.506V788H290.847ZM336.631 788L319.631 758.636L337.018 739.705L367.154 788H336.631ZM397.121 788.966C391.841 788.966 386.979 787.581 382.536 784.812C378.125 782.044 374.584 777.842 371.911 772.207C369.271 766.573 367.951 759.473 367.951 750.909C367.951 741.958 369.335 734.682 372.104 729.08C374.906 723.477 378.512 719.372 382.923 716.764C387.366 714.156 392.034 712.852 396.928 712.852C400.599 712.852 403.818 713.496 406.587 714.784C409.356 716.04 411.674 717.73 413.542 719.855C415.409 721.948 416.826 724.25 417.792 726.761H418.178V689.091H444.837V788H418.371V775.83H417.792C416.762 778.341 415.281 780.595 413.349 782.591C411.449 784.555 409.131 786.116 406.394 787.276C403.69 788.402 400.599 788.966 397.121 788.966ZM406.974 768.489C409.421 768.489 411.513 767.78 413.252 766.364C415.023 764.915 416.375 762.886 417.309 760.278C418.275 757.638 418.758 754.515 418.758 750.909C418.758 747.239 418.275 744.099 417.309 741.491C416.375 738.851 415.023 736.839 413.252 735.455C411.513 734.038 409.421 733.33 406.974 733.33C404.527 733.33 402.434 734.038 400.695 735.455C398.989 736.839 397.669 738.851 396.735 741.491C395.834 744.099 395.383 747.239 395.383 750.909C395.383 754.58 395.834 757.735 396.735 760.375C397.669 762.983 398.989 764.995 400.695 766.412C402.434 767.796 404.527 768.489 406.974 768.489ZM478.596 789.159C473.863 789.159 469.677 788.386 466.039 786.841C462.433 785.263 459.6 782.881 457.539 779.693C455.478 776.506 454.448 772.449 454.448 767.523C454.448 763.466 455.14 760.005 456.525 757.139C457.909 754.241 459.841 751.875 462.32 750.04C464.799 748.205 467.681 746.804 470.965 745.838C474.281 744.872 477.855 744.244 481.687 743.955C485.84 743.633 489.173 743.246 491.684 742.795C494.228 742.312 496.063 741.652 497.19 740.815C498.317 739.946 498.88 738.803 498.88 737.386V737.193C498.88 735.261 498.139 733.78 496.658 732.75C495.177 731.72 493.278 731.205 490.96 731.205C488.416 731.205 486.339 731.768 484.729 732.895C483.152 733.99 482.202 735.68 481.88 737.966H457.346C457.668 733.458 459.101 729.305 461.644 725.506C464.22 721.674 467.971 718.616 472.897 716.33C477.823 714.011 483.973 712.852 491.346 712.852C496.658 712.852 501.424 713.48 505.641 714.736C509.859 715.959 513.449 717.682 516.411 719.903C519.373 722.093 521.627 724.669 523.173 727.631C524.75 730.561 525.539 733.748 525.539 737.193V788H500.619V777.568H500.039C498.558 780.337 496.755 782.575 494.63 784.281C492.537 785.988 490.138 787.227 487.434 788C484.762 788.773 481.816 789.159 478.596 789.159ZM487.289 772.352C489.317 772.352 491.217 771.934 492.988 771.097C494.791 770.259 496.256 769.052 497.383 767.474C498.51 765.897 499.073 763.981 499.073 761.727V755.545C498.365 755.835 497.608 756.109 496.803 756.366C496.031 756.624 495.193 756.866 494.292 757.091C493.423 757.316 492.489 757.526 491.491 757.719C490.525 757.912 489.511 758.089 488.448 758.25C486.388 758.572 484.697 759.103 483.377 759.844C482.089 760.552 481.123 761.438 480.479 762.5C479.868 763.53 479.562 764.689 479.562 765.977C479.562 768.038 480.286 769.616 481.735 770.71C483.184 771.805 485.035 772.352 487.289 772.352ZM551.848 815.818C548.789 815.818 545.875 815.577 543.107 815.094C540.338 814.643 537.907 814.015 535.814 813.21L541.609 794.278C543.799 795.051 545.795 795.55 547.598 795.776C549.433 796.001 550.995 795.872 552.283 795.389C553.603 794.906 554.553 793.989 555.132 792.636L555.712 791.284L529.632 713.818H557.45L569.428 765.205H570.2L582.371 713.818H610.382L583.337 794.182C581.984 798.271 580.02 801.941 577.445 805.193C574.901 808.477 571.553 811.069 567.399 812.969C563.246 814.868 558.062 815.818 551.848 815.818ZM669.786 788L640.615 689.091H670.558L684.081 749.943H684.854L700.888 689.091H724.456L740.49 750.136H741.263L754.786 689.091H784.729L755.558 788H729.865L713.058 732.75H712.286L695.479 788H669.786ZM805.846 789.159C801.113 789.159 796.927 788.386 793.289 786.841C789.683 785.263 786.85 782.881 784.789 779.693C782.728 776.506 781.698 772.449 781.698 767.523C781.698 763.466 782.39 760.005 783.775 757.139C785.159 754.241 787.091 751.875 789.57 750.04C792.049 748.205 794.931 746.804 798.215 745.838C801.531 744.872 805.105 744.244 808.937 743.955C813.09 743.633 816.423 743.246 818.934 742.795C821.478 742.312 823.313 741.652 824.44 740.815C825.567 739.946 826.13 738.803 826.13 737.386V737.193C826.13 735.261 825.389 733.78 823.908 732.75C822.427 731.72 820.528 731.205 818.21 731.205C815.666 731.205 813.589 731.768 811.979 732.895C810.402 733.99 809.452 735.68 809.13 737.966H784.596C784.918 733.458 786.351 729.305 788.894 725.506C791.47 721.674 795.221 718.616 800.147 716.33C805.073 714.011 811.223 712.852 818.596 712.852C823.908 712.852 828.674 713.48 832.891 714.736C837.109 715.959 840.699 717.682 843.661 719.903C846.623 722.093 848.877 724.669 850.423 727.631C852 730.561 852.789 733.748 852.789 737.193V788H827.869V777.568H827.289C825.808 780.337 824.005 782.575 821.88 784.281C819.787 785.988 817.388 787.227 814.684 788C812.012 788.773 809.066 789.159 805.846 789.159ZM814.539 772.352C816.567 772.352 818.467 771.934 820.238 771.097C822.041 770.259 823.506 769.052 824.633 767.474C825.76 765.897 826.323 763.981 826.323 761.727V755.545C825.615 755.835 824.858 756.109 824.053 756.366C823.281 756.624 822.443 756.866 821.542 757.091C820.673 757.316 819.739 757.526 818.741 757.719C817.775 757.912 816.761 758.089 815.698 758.25C813.638 758.572 811.947 759.103 810.627 759.844C809.339 760.552 808.373 761.438 807.729 762.5C807.118 763.53 806.812 764.689 806.812 765.977C806.812 768.038 807.536 769.616 808.985 770.71C810.434 771.805 812.285 772.352 814.539 772.352ZM865.527 788V713.818H891.413V727.92H892.186C893.538 722.705 895.679 718.889 898.609 716.474C901.571 714.06 905.033 712.852 908.993 712.852C910.152 712.852 911.295 712.949 912.422 713.142C913.581 713.303 914.692 713.545 915.754 713.866V736.614C914.434 736.163 912.808 735.825 910.876 735.599C908.945 735.374 907.286 735.261 905.902 735.261C903.294 735.261 900.944 735.857 898.851 737.048C896.79 738.207 895.164 739.849 893.973 741.974C892.782 744.067 892.186 746.53 892.186 749.364V788H865.527ZM924.496 788V713.818H950.382V727.92H951.155C952.507 722.705 954.648 718.889 957.578 716.474C960.54 714.06 964.001 712.852 967.962 712.852C969.121 712.852 970.264 712.949 971.391 713.142C972.55 713.303 973.661 713.545 974.723 713.866V736.614C973.403 736.163 971.777 735.825 969.845 735.599C967.913 735.374 966.255 735.261 964.871 735.261C962.263 735.261 959.912 735.857 957.82 737.048C955.759 738.207 954.133 739.849 952.942 741.974C951.75 744.067 951.155 746.53 951.155 749.364V788H924.496ZM983.464 788V713.818H1010.12V788H983.464ZM996.794 706.091C993.188 706.091 990.097 704.9 987.521 702.517C984.946 700.134 983.658 697.269 983.658 693.92C983.658 690.572 984.946 687.706 987.521 685.324C990.097 682.941 993.188 681.75 996.794 681.75C1000.43 681.75 1003.52 682.941 1006.07 685.324C1008.64 687.706 1009.93 690.572 1009.93 693.92C1009.93 697.269 1008.64 700.134 1006.07 702.517C1003.52 704.9 1000.43 706.091 996.794 706.091ZM1059.45 789.352C1051.4 789.352 1044.51 787.759 1038.77 784.571C1033.04 781.351 1028.65 776.876 1025.59 771.145C1022.53 765.382 1021 758.701 1021 751.102C1021 743.504 1022.53 736.839 1025.59 731.108C1028.65 725.345 1033.04 720.869 1038.77 717.682C1044.51 714.462 1051.4 712.852 1059.45 712.852C1067.49 712.852 1074.38 714.462 1080.12 717.682C1085.85 720.869 1090.24 725.345 1093.3 731.108C1096.36 736.839 1097.89 743.504 1097.89 751.102C1097.89 758.701 1096.36 765.382 1093.3 771.145C1090.24 776.876 1085.85 781.351 1080.12 784.571C1074.38 787.759 1067.49 789.352 1059.45 789.352ZM1059.64 769.648C1061.89 769.648 1063.84 768.891 1065.48 767.378C1067.12 765.865 1068.4 763.707 1069.3 760.906C1070.2 758.105 1070.65 754.773 1070.65 750.909C1070.65 747.013 1070.2 743.681 1069.3 740.912C1068.4 738.111 1067.12 735.954 1065.48 734.44C1063.84 732.927 1061.89 732.17 1059.64 732.17C1057.26 732.17 1055.21 732.927 1053.5 734.44C1051.8 735.954 1050.49 738.111 1049.59 740.912C1048.69 743.681 1048.24 747.013 1048.24 750.909C1048.24 754.773 1048.69 758.105 1049.59 760.906C1050.49 763.707 1051.8 765.865 1053.5 767.378C1055.21 768.891 1057.26 769.648 1059.64 769.648ZM1108.71 788V713.818H1134.59V727.92H1135.37C1136.72 722.705 1138.86 718.889 1141.79 716.474C1144.75 714.06 1148.21 712.852 1152.17 712.852C1153.33 712.852 1154.47 712.949 1155.6 713.142C1156.76 713.303 1157.87 713.545 1158.93 713.866V736.614C1157.61 736.163 1155.99 735.825 1154.06 735.599C1152.12 735.374 1150.47 735.261 1149.08 735.261C1146.47 735.261 1144.12 735.857 1142.03 737.048C1139.97 738.207 1138.34 739.849 1137.15 741.974C1135.96 744.067 1135.37 746.53 1135.37 749.364V788H1108.71ZM1235.48 737.966H1210.95C1210.82 736.453 1210.29 735.149 1209.35 734.054C1208.42 732.959 1207.21 732.122 1205.73 731.543C1204.28 730.931 1202.67 730.625 1200.9 730.625C1198.62 730.625 1196.65 731.044 1195.01 731.881C1193.37 732.718 1192.56 733.909 1192.6 735.455C1192.56 736.549 1193.03 737.563 1194 738.497C1194.99 739.431 1196.91 740.155 1199.74 740.67L1214.81 743.375C1222.41 744.759 1228.06 747.094 1231.76 750.378C1235.5 753.63 1237.38 757.992 1237.41 763.466C1237.38 768.746 1235.8 773.334 1232.68 777.23C1229.59 781.094 1225.36 784.088 1219.98 786.213C1214.63 788.306 1208.53 789.352 1201.68 789.352C1190.34 789.352 1181.47 787.034 1175.06 782.398C1168.69 777.761 1165.13 771.644 1164.39 764.045H1190.86C1191.21 766.396 1192.37 768.215 1194.33 769.503C1196.33 770.759 1198.84 771.386 1201.87 771.386C1204.32 771.386 1206.33 770.968 1207.91 770.131C1209.52 769.294 1210.34 768.102 1210.37 766.557C1210.34 765.14 1209.63 764.013 1208.24 763.176C1206.89 762.339 1204.77 761.663 1201.87 761.148L1188.73 758.83C1181.17 757.509 1175.5 754.998 1171.73 751.295C1167.97 747.593 1166.1 742.828 1166.13 737C1166.1 731.848 1167.45 727.486 1170.19 723.912C1172.96 720.306 1176.9 717.569 1182.02 715.702C1187.17 713.802 1193.27 712.852 1200.32 712.852C1211.04 712.852 1219.5 715.074 1225.68 719.517C1231.89 723.96 1235.16 730.11 1235.48 737.966Z" fill="#231F20"/>
<path d="M62 935.325C465.968 851.407 707.305 847.73 1170 935.325" stroke="#231F20" stroke-width="19"/>
<path fill-rule="evenodd" clip-rule="evenodd" d="M455 238.5L416 274.5V412V467.5V468L449.429 440.571L488 409.5V356L455 381.667V238.5Z" fill="#231F20"/>
<path d="M511.5 462L603.182 386.5V440.5L508 519L511.5 462Z" fill="#231F20"/>
<path d="M603.182 386.5L698.682 464.5L697.182 520L603.182 440.5V386.5Z" fill="#231F20"/>
<path d="M656 378.5L698.682 414L697.182 521.5L650.182 480.25L656 378.5Z" fill="#231F20"/>
<path d="M507.5 190L547 153.5V485.5L507.5 519V190Z" fill="#231F20"/>
<path d="M565 292.999L604 260.999L637.5 288.999L565 345.499V292.999Z" fill="#231F20"/>
<path d="M604 315.106L637.5 288.999L785.5 402.999V466.999L604 315.106Z" fill="#231F20"/>
<path d="M745 26.5L777.5 43L785.5 402.999L745 371.803V26.5Z" fill="#231F20"/>
<path d="M657 150.5L697 189V318.5L657 283.5V150.5Z" fill="#231F20"/>
<path fill-rule="evenodd" clip-rule="evenodd" d="M910 317.5C910 479.23 779.977 610 620 610C460.023 610 330 479.23 330 317.5C330 155.77 460.023 25 620 25C678.313 25 732.646 42.3749 778.152 72.2908L778.499 43.061C731.942 15.6847 677.788 0 620 0C446.03 0 305 142.15 305 317.5C305 492.85 446.03 635 620 635C793.97 635 935 492.85 935 317.5C935 205.689 877.659 107.378 791 50.8105V81.2416C863.109 134.419 910 220.377 910 317.5Z" fill="#231F20"/>
</svg>
